<?xml version="1.0" standalone="no"?>
<!DOCTYPE svg PUBLIC "-//W3C//DTD SVG 20010904//EN"
 "http://www.w3.org/TR/2001/REC-SVG-20010904/DTD/svg10.dtd">
<svg version="1.0" xmlns="http://www.w3.org/2000/svg"
 width="1319.355667pt" height="400.926601pt" viewBox="0 0 1319.355667 400.926601"
 preserveAspectRatio="xMidYMid meet">
<metadata>
Created by potrace 1.12, written by Peter Selinger 2001-2015
</metadata>
<g transform="translate(-39.644333,506.926601) scale(0.100000,-0.100000)"
fill="#000000" stroke="none">
<path d="M513 5059 c-40 -12 -98 -78 -110 -127 -6 -23 -8 -372 -5 -887 4 -810
5 -852 23 -890 10 -22 36 -51 56 -65 l38 -25 553 -3 c364 -2 566 1 592 8 49
13 99 54 116 97 12 26 14 188 14 890 0 813 -1 860 -19 898 -23 51 -48 78 -88
99 -29 14 -90 16 -585 15 -304 0 -567 -5 -585 -10z m689 -109 l439 0 19 -42
c19 -41 20 -74 20 -838 0 -506 -4 -808 -10 -831 -19 -67 10 -64 -573 -67 -497
-3 -531 -2 -549 15 -11 10 -24 28 -29 40 -4 12 -9 391 -10 843 -2 805 -1 822
18 848 23 31 80 43 177 36 32 -2 256 -4 498 -4z"/>
<path d="M698 4805 c-15 -9 -32 -24 -38 -35 -6 -11 -10 -109 -10 -243 0 -254
2 -260 75 -277 54 -13 691 -13 735 0 22 6 44 23 59 45 l24 36 -7 202 c-4 111
-9 211 -12 222 -3 11 -17 29 -32 40 -26 19 -45 20 -397 22 -315 3 -374 1 -397
-12z m737 -272 c0 -94 -4 -175 -8 -179 -11 -11 -677 -19 -678 -8 0 17 -1 209
0 287 l1 77 343 -2 342 -3 0 -172z"/>
<path d="M1258 4670 c-17 -10 -118 -133 -118 -144 0 -13 66 -4 86 12 27 21 87
126 77 135 -9 10 -25 8 -45 -3z"/>
<path d="M1284 4560 c-40 -16 -107 -160 -75 -160 15 0 142 142 138 154 -5 14
-36 17 -63 6z"/>
<path d="M1098 4103 c-34 -39 -228 -362 -228 -380 0 -7 9 -22 20 -33 17 -17
33 -20 115 -20 59 0 95 -4 95 -10 0 -6 -27 -64 -60 -129 -65 -128 -72 -159
-39 -179 18 -12 24 -11 45 9 13 13 36 43 51 68 14 25 49 80 76 121 100 149
109 168 95 198 -13 26 -15 27 -121 30 -119 3 -122 5 -84 62 13 19 45 75 71
123 38 69 47 94 41 115 -11 44 -49 56 -77 25z"/>
<path d="M4531 4844 c-18 -14 -36 -34 -41 -45 -13 -24 -14 -3123 -1 -3147 21
-38 70 -74 108 -79 49 -6 92 14 127 60 25 32 25 35 27 250 l1 217 59 52 c32
28 56 55 52 61 -3 5 -2 7 4 4 13 -8 86 67 76 78 -5 4 -3 5 4 1 11 -6 129 98
262 231 l64 65 21 -24 c26 -27 418 -492 618 -730 78 -94 145 -165 151 -161 6
3 7 1 3 -6 -11 -16 69 -88 107 -95 73 -15 157 43 171 118 8 44 -12 86 -74 153
-25 26 -100 113 -166 193 -67 80 -159 190 -205 245 -47 55 -116 138 -154 185
-38 47 -98 121 -134 165 -36 44 -78 94 -93 110 -34 37 -34 44 -4 70 13 11 148
142 300 290 153 149 282 272 287 273 5 2 9 8 9 13 0 6 -4 7 -10 4 -6 -3 -7 1
-3 10 5 13 7 14 14 3 7 -10 15 -6 36 17 16 16 27 33 25 38 -1 5 1 6 6 3 13 -8
140 126 147 156 10 40 -14 109 -50 145 -28 28 -40 33 -81 33 -54 0 -101 -31
-169 -111 -22 -26 -44 -48 -49 -48 -5 -1 -45 -36 -90 -80 -44 -43 -107 -103
-138 -133 -32 -31 -55 -58 -53 -62 3 -3 2 -4 -2 -1 -4 3 -43 -30 -87 -73 -147
-143 -380 -369 -416 -402 -129 -121 -209 -204 -203 -213 3 -6 1 -7 -5 -3 -10
6 -104 -76 -191 -166 -42 -43 -41 -77 -41 1115 0 1249 4 1166 -60 1221 -44 37
-116 37 -159 0z"/>
<path d="M6764 4550 c-79 -40 -74 30 -74 -1053 0 -542 5 -1005 10 -1061 17
-172 63 -305 153 -442 73 -110 251 -275 278 -258 8 4 9 3 5 -5 -12 -18 183
-105 292 -130 61 -14 128 -21 191 -21 86 0 102 3 127 22 47 36 53 50 54 111 0
51 -4 61 -33 93 -32 35 -36 36 -127 45 -178 17 -260 44 -375 120 -89 60 -159
134 -205 220 -97 178 -101 220 -98 834 l3 500 375 5 c347 5 377 6 403 24 58
39 71 101 37 171 -34 70 -31 69 -445 75 l-370 5 -5 335 c-4 299 -7 339 -23
363 -39 60 -109 79 -173 47z"/>
<path d="M8226 4508 c-21 -6 -57 -29 -81 -52 -102 -98 -79 -263 45 -326 78
-40 151 -35 227 14 80 52 103 178 50 268 -47 80 -149 120 -241 96z"/>
<path d="M2855 3804 c-198 -30 -399 -112 -530 -217 -210 -169 -344 -372 -403
-612 -26 -105 -32 -157 -33 -295 -1 -295 118 -584 321 -777 l65 -63 -250 -2
c-298 -2 -394 1 -458 13 -117 21 -235 111 -294 225 -57 107 -64 160 -61 471
l3 277 49 2 c67 4 88 25 84 83 l-3 46 -230 3 c-126 1 -240 0 -252 -3 -19 -4
-23 -12 -23 -46 0 -55 34 -89 90 -89 l40 0 0 -290 c0 -245 3 -305 19 -389 44
-227 178 -398 386 -495 142 -66 150 -66 991 -66 480 0 782 4 820 10 106 19
249 70 343 123 103 58 215 145 252 194 45 60 49 54 49 -85 0 -154 9 -188 58
-225 31 -25 44 -28 84 -24 53 5 99 36 123 85 14 29 16 94 12 625 -3 576 -4
594 -26 676 -111 416 -409 717 -816 823 -60 15 -117 21 -230 23 -82 2 -163 1
-180 -1z m245 -275 c224 -35 406 -138 546 -307 203 -246 242 -613 96 -912 -22
-45 -76 -123 -124 -179 -21 -24 -35 -48 -31 -54 3 -6 1 -7 -5 -3 -6 3 -26 -6
-44 -22 -100 -87 -197 -138 -323 -172 -234 -61 -478 -21 -677 112 -195 131
-329 342 -368 580 -39 240 54 528 227 711 10 11 17 23 15 28 -1 5 5 9 14 9 9
0 12 5 8 12 -4 6 -3 8 3 5 6 -4 34 12 64 34 103 77 251 139 389 162 49 8 146
7 210 -4z"/>
<path d="M9704 3795 c-469 -86 -822 -446 -899 -915 -18 -111 -19 -218 -4 -327
12 -89 44 -223 64 -268 7 -16 23 -52 34 -79 57 -134 228 -336 356 -423 143
-96 281 -152 454 -183 109 -19 153 -20 948 -20 785 0 834 -1 839 -17 17 -53
28 -72 57 -104 52 -57 71 -69 147 -95 65 -22 88 -24 244 -24 l172 0 64 -65
c36 -36 70 -63 77 -61 7 3 10 -1 7 -8 -5 -13 103 -67 156 -80 14 -3 103 -6
198 -6 l172 -2 21 -29 c18 -26 26 -29 73 -29 45 0 58 4 85 30 l31 30 0 114 0
113 270 5 c300 6 303 7 316 74 7 36 1 59 -22 89 -14 19 -30 20 -287 25 l-272
5 -3 163 -2 162 250 1 c137 1 255 3 260 4 6 1 19 3 30 4 23 1 50 48 50 88 0
27 -22 70 -44 85 -6 4 -131 8 -278 8 -184 0 -269 3 -274 11 -3 6 -6 53 -5 103
2 88 1 94 -25 119 -45 45 -109 48 -160 8 -21 -17 -38 -19 -142 -16 -271 7
-374 -25 -493 -152 l-63 -68 -195 -5 c-195 -6 -196 -6 -257 -37 -63 -33 -121
-89 -150 -145 -9 -18 -18 -35 -21 -37 -8 -10 -1571 0 -1648 10 -256 34 -478
158 -611 339 -22 30 -47 71 -56 90 -41 87 -60 139 -73 192 l-13 58 471 0 c260
1 664 1 899 0 405 -1 430 0 472 19 70 31 80 59 73 211 -7 156 -27 257 -71 364
-82 197 -191 339 -361 465 -91 68 -243 146 -345 176 -152 45 -366 57 -516 30z
m316 -266 c75 -12 158 -39 250 -82 89 -41 134 -74 218 -156 114 -112 173 -217
213 -382 18 -76 20 -92 8 -100 -8 -5 -376 -7 -824 -6 l-810 2 3 30 c4 40 39
158 65 220 33 80 115 191 194 264 188 174 436 250 683 210z m2770 -1461 c0 -5
0 -174 0 -378 l0 -370 -165 0 c-132 0 -173 3 -198 16 -18 9 -70 54 -117 100
-117 114 -127 118 -335 120 -183 1 -207 5 -243 38 -79 71 -66 180 27 243 32
22 44 23 198 23 226 0 234 3 354 116 54 51 108 94 121 97 38 7 358 3 358 -5z"/>
<path d="M8212 3770 c-30 -21 -42 -38 -46 -62 -11 -69 -17 -1997 -7 -2036 6
-21 24 -51 41 -67 25 -24 39 -29 83 -29 58 -1 123 34 113 61 -3 8 -2 12 3 9 5
-3 12 1 15 10 3 9 6 472 6 1030 0 877 -2 1019 -15 1044 -39 75 -121 93 -193
40z"/>
</g>
</svg>
