<?xml version="1.0" standalone="no"?>
<!DOCTYPE svg PUBLIC "-//W3C//DTD SVG 20010904//EN"
 "http://www.w3.org/TR/2001/REC-SVG-20010904/DTD/svg10.dtd">
<svg version="1.0" xmlns="http://www.w3.org/2000/svg"
 width="381.572312pt" height="477.285648pt" viewBox="0 0 381.572312 477.285648"
 preserveAspectRatio="xMidYMid meet">
<metadata>
Created by potrace 1.12, written by Peter Selinger 2001-2015
</metadata>
<g transform="translate(-593.954255,843.050659) scale(0.100000,-0.100000)"
fill="#000000" stroke="none">
<path d="M6020 8408 c-19 -13 -45 -39 -57 -58 l-23 -34 2 -801 3 -802 27 -35
c53 -70 39 -68 595 -68 462 0 501 2 538 19 46 21 69 44 85 86 9 22 12 228 11
809 -2 849 0 814 -60 871 l-32 30 -528 3 -527 3 -34 -23z m1059 -108 c20 -25
20 -30 21 -781 0 -732 -1 -758 -19 -780 l-19 -24 -488 3 c-484 3 -489 3 -511
24 l-23 21 0 756 0 755 27 28 27 29 482 -3 482 -3 21 -25z"/>
<path d="M6195 8179 c-25 -27 -34 -115 -31 -303 2 -149 2 -149 30 -172 l27
-24 349 0 349 0 28 24 28 24 -2 198 c-1 108 -4 207 -7 218 -3 12 -18 29 -35
39 -26 15 -64 17 -373 17 -335 0 -345 -1 -363 -21z m685 -237 l0 -159 -97 -6
c-54 -4 -194 -7 -310 -7 l-213 0 0 165 0 165 310 0 310 0 0 -158z"/>
<path d="M6682 8025 c-23 -30 -46 -64 -52 -75 -10 -19 -8 -20 30 -20 22 0 40
-3 40 -7 -1 -5 -9 -26 -20 -48 -23 -48 -24 -55 -6 -55 18 0 126 116 126 136 0
14 -14 18 -57 16 -28 -1 -28 2 -2 45 22 35 20 63 -4 63 -8 0 -33 -25 -55 -55z"/>
<path d="M6568 7528 c-49 -66 -198 -307 -198 -321 0 -34 34 -47 123 -47 65 0
87 -3 87 -13 0 -7 -25 -61 -55 -119 -30 -58 -55 -112 -55 -120 0 -8 9 -23 20
-33 19 -17 21 -17 41 1 11 10 50 68 86 129 37 60 79 129 95 152 32 48 35 65
12 87 -12 12 -37 16 -105 16 -61 0 -89 4 -89 12 0 6 26 54 59 107 68 111 76
133 61 161 -16 31 -54 25 -82 -12z"/>
<path d="M8195 7310 c-225 -30 -433 -131 -593 -290 -97 -96 -151 -168 -199
-265 -86 -171 -119 -324 -110 -510 14 -258 104 -471 281 -661 36 -40 66 -75
66 -78 0 -3 -134 -6 -297 -6 -214 0 -314 4 -355 14 -119 28 -219 113 -277 236
-26 55 -26 56 -29 348 l-3 292 39 0 c27 0 45 7 60 23 28 30 29 82 2 97 -12 7
-95 10 -220 10 -163 -1 -203 -4 -215 -16 -18 -18 -19 -35 -3 -69 11 -25 24
-31 78 -39 l25 -3 6 -294 c6 -312 11 -344 63 -462 69 -156 186 -264 362 -334
l69 -28 747 -3 c701 -2 753 -1 840 16 51 11 128 34 171 52 99 41 242 134 315
205 30 30 57 55 59 55 2 0 3 -13 3 -28 0 -23 -10 -35 -61 -67 -68 -45 -123
-118 -138 -186 -6 -24 -11 -109 -11 -188 l0 -145 -73 -70 c-111 -107 -120
-132 -127 -351 -5 -176 -6 -181 -33 -219 -36 -51 -35 -89 2 -127 29 -28 32
-29 136 -29 l107 0 -3 -245 c-4 -238 -3 -245 17 -266 27 -26 80 -29 116 -5 20
13 29 29 34 62 3 24 3 52 -1 61 -3 10 -3 102 1 206 l7 187 143 0 144 0 0 -239
c0 -226 1 -240 21 -265 26 -32 84 -36 120 -7 24 19 24 21 26 248 1 125 2 236
2 246 1 15 12 17 85 17 47 0 96 4 110 10 55 20 70 115 25 156 -17 15 -19 33
-19 179 0 218 -13 257 -120 369 l-78 81 -4 170 c-3 156 -5 174 -28 220 -30 62
-92 124 -147 149 -47 21 -54 39 -23 56 19 10 20 21 20 410 0 443 -6 509 -55
648 -88 246 -266 450 -490 562 -195 97 -397 135 -590 110z m346 -283 c420
-143 632 -571 490 -992 -102 -304 -401 -516 -728 -515 -390 1 -732 327 -760
723 -23 341 199 667 532 782 82 28 134 34 265 31 103 -3 139 -8 201 -29z m736
-1701 l38 -34 6 -182 c8 -207 12 -219 109 -301 89 -75 94 -90 99 -276 l3 -161
-341 -1 -341 -1 0 150 c0 182 9 207 105 293 96 86 99 93 103 287 2 91 7 176
13 190 16 41 67 70 122 70 40 0 53 -5 84 -34z"/>
</g>
</svg>
